<svg xmlns="http://www.w3.org/2000/svg" xmlns:xlink="http://www.w3.org/1999/xlink" version="1.1" font-family="sans-serif, droid-sans, helvetica, verdana, tahoma" viewbox="0 0 600 360" width="600" height="360" preserveAspectRatio="xMinYMin meet"><rect x="0" y="0" width="600" height="360" fill="#FEFEFE" stroke="#757575" stroke-width="2"/><g stroke="#757575" stroke-width="1"><rect x="99" y="52" width="10" height="10" fill="#f44336"/><rect x="202" y="52" width="10" height="10" fill="#2196f3"/></g><g font-size="9" text-anchor="start" font-weight="bold"><text x="112" y="61" fill="#f44336">Stock</text><text x="215" y="61" fill="#2196f3">Not Mitigated</text></g><g stroke="#757575" stroke-width="1"><line x1="99" y1="80" x2="99" y2="289"/><line x1="99" y1="288" x2="586" y2="288"/></g><a xlink:href="https://www.openbenchmarking.org/" xlink:show="new"><text x="585" y="75" font-size="8" fill="#065695" text-anchor="end" xlink:show="new">OpenBenchmarking.org</text></a><polygon points="99,72 108,76.5 108,67.5" fill="#065695" stroke="#949494" stroke-width="1"/><text x="111" y="75" font-size="8" fill="#065695" text-anchor="start">Seconds, Less Is Better</text><rect x="0" y="0" width="600" height="48" fill="#231f20"/><a xlink:href="https://openbenchmarking.org/test/pts/mafft-1.5.0" xlink:show="new"><text x="6" y="19" font-size="17" fill="#FEFEFE" text-anchor="start" xlink:show="new" font-weight="bold">Timed MAFFT Alignment v7.392</text></a><text x="6" y="36" font-size="11" font-weight="bold" fill="#FEFEFE" text-anchor="start">Multiple Sequence Alignment</text><path d="m74 22v9m-5-16v16m-5-28v28m-23-2h12.5c2.485281 0 4.5-2.014719 4.5-4.5s-2.014719-4.5-4.5-4.5h-8c-2.485281 0-4.5-2.014719-4.5-4.5s2.014719-4.5 4.5-4.5h12.5m-21 5h-11m11 13h-2c-4.970563 0-9-4.029437-9-9v-20m-24 40v-20c0-4.970563 4.0294373-9 9-9 4.970563 0 9 4.029437 9 9s-4.029437 9-9 9h-9" stroke="#ffffff" stroke-width="4" fill="none" transform="translate(508,4)"/><line x1="99" y1="149" x2="99" y2="273" stroke="#757575" stroke-width="11" stroke-dasharray="1,68"/><g font-size="10" fill="#231f20" font-weight="bold"><text x="8" y="118" text-anchor="middle" transform="rotate(90 8 118)">7980XE</text><text x="8" y="187" text-anchor="middle" transform="rotate(90 8 187)">8086K</text><text x="8" y="256" text-anchor="middle" transform="rotate(90 8 256)">2700X</text></g><g font-size="10" fill="#065695" text-anchor="middle"><text x="182" y="303">0.6503</text><text x="263" y="303">1.3006</text><text x="344" y="303">1.9509</text><text x="425" y="303">2.6012</text><text x="506" y="303">3.2515</text></g><g stroke="#BABABA" stroke-width="1"><line x1="182" y1="80" x2="182" y2="283" stroke-dasharray="5,5"/><line x1="182" y1="284" x2="182" y2="293"/><line x1="263" y1="80" x2="263" y2="283" stroke-dasharray="5,5"/><line x1="263" y1="284" x2="263" y2="293"/><line x1="344" y1="80" x2="344" y2="283" stroke-dasharray="5,5"/><line x1="344" y1="284" x2="344" y2="293"/><line x1="425" y1="80" x2="425" y2="283" stroke-dasharray="5,5"/><line x1="425" y1="284" x2="425" y2="293"/><line x1="506" y1="80" x2="506" y2="283" stroke-dasharray="5,5"/><line x1="506" y1="284" x2="506" y2="293"/></g><g stroke="#949494" stroke-width="1"><rect x="99" y="89" height="26" width="285" fill="#f44336" xlink:title="7980XE: 2.29"/><rect x="99" y="158" height="26" width="360" fill="#f44336" xlink:title="8086K: 2.89"/><rect x="99" y="227" height="26" width="341" fill="#f44336" xlink:title="2700X: 2.74"/><rect x="99" y="119" height="26" width="275" fill="#2196f3" xlink:title="7980XE: 2.21"/><rect x="99" y="188" height="26" width="324" fill="#2196f3" xlink:title="8086K: 2.60"/><rect x="99" y="257" height="26" width="321" fill="#2196f3" xlink:title="2700X: 2.58"/></g><g font-size="8" fill="#065695" text-anchor="end"><text y="108" x="94">SE +/- 0.04</text><text y="177" x="94">SE +/- 0.08</text><text y="246" x="94">SE +/- 0.06</text><text y="138" x="94">SE +/- 0.01</text><text y="207" x="94">SE +/- 0.04</text><text y="276" x="94">SE +/- 0.02</text></g><g font-size="10" fill="#FFFFFF" font-weight="bold" text-anchor="end"><text x="379" y="108">2.29</text><text x="454" y="177">2.89</text><text x="435" y="246">2.74</text><text x="369" y="138">2.21</text><text x="418" y="207">2.60</text><text x="415" y="276">2.58</text></g><g stroke="#757575" stroke-width="1"><line x1="379" y1="89" x2="379" y2="97"/><line x1="389" y1="89" x2="389" y2="97"/><line x1="379" y1="89" x2="389" y2="89"/></g><g stroke="#757575" stroke-width="1"><line x1="449" y1="158" x2="449" y2="166"/><line x1="469" y1="158" x2="469" y2="166"/><line x1="449" y1="158" x2="469" y2="158"/></g><g stroke="#757575" stroke-width="1"><line x1="433" y1="227" x2="433" y2="235"/><line x1="447" y1="227" x2="447" y2="235"/><line x1="433" y1="227" x2="447" y2="227"/></g><g stroke="#757575" stroke-width="1"><line x1="418" y1="188" x2="418" y2="196"/><line x1="428" y1="188" x2="428" y2="196"/><line x1="418" y1="188" x2="428" y2="188"/></g><rect x="0" y="310" width="600" height="50" fill="#231f20"/><a xlink:href="https://www.phoronix-test-suite.com/" xlink:show="new"><text x="585" y="322" font-size="9" fill="#FEFEFE" text-anchor="end" xlink:show="new">Phoronix Test Suite 8.6.0m1</text></a><a xlink:href="/prospect/1903034-PTS-SPECCY8931/500b5e30aec98cac91482d702af144689f5932ac" xlink:show="new"><g transform="translate(4,311)" width="10" height="16"><path d="M5 0v6.5L0 11l3-3-3-3.5L5 0" fill="#038bb8"/><path d="M5 0v6.5l5 4.5-3-3 3-3.5L5 0" fill="#25b3e8"/><path d="M5 16V9l5-4.5V11l-5 5" fill="#e4f4fd"/><path d="M5 16V9L0 4.5V11l5 5" fill="#65cbf4"/></g></a><text x="5" y="336" font-size="8" fill="#FEFEFE" text-anchor="start" xlink:title="-std=c99 -O3 -lm -lpthread" width="595">1. (CC) gcc options: -std=c99 -O3 -lm -lpthread</text></svg>
