<svg xmlns="http://www.w3.org/2000/svg" xmlns:xlink="http://www.w3.org/1999/xlink" version="1.1" font-family="sans-serif, droid-sans, helvetica, verdana, tahoma" viewbox="0 0 600 327" width="600" height="327" preserveAspectRatio="xMinYMin meet"><rect x="0" y="0" width="600" height="327" fill="#FEFEFE" stroke="#757575" stroke-width="2"/><g stroke="#757575" stroke-width="1"><rect x="86" y="52" width="10" height="10" fill="#f44336"/><rect x="189" y="52" width="10" height="10" fill="#2196f3"/></g><g font-size="9" text-anchor="start" font-weight="bold"><text x="99" y="61" fill="#f44336">Stock</text><text x="202" y="61" fill="#2196f3">Not Mitigated</text></g><g stroke="#757575" stroke-width="1"><line x1="86" y1="80" x2="86" y2="289"/><line x1="86" y1="288" x2="586" y2="288"/></g><a xlink:href="https://www.openbenchmarking.org/" xlink:show="new"><text x="585" y="75" font-size="8" fill="#065695" text-anchor="end" xlink:show="new">OpenBenchmarking.org</text></a><polygon points="95,72 86,76.5 86,67.5" fill="#065695" stroke="#949494" stroke-width="1"/><text x="98" y="75" font-size="8" fill="#065695" text-anchor="start">Geometric Mean, More Is Better</text><rect x="0" y="0" width="600" height="48" fill="#231f20"/><text x="6" y="19" font-size="17" fill="#FEFEFE" text-anchor="start" xlink:show="new" font-weight="bold">Geometric Mean Of All Test Results</text><text x="6" y="36" font-size="11" font-weight="bold" fill="#FEFEFE" text-anchor="start">Result Composite</text><path d="m74 22v9m-5-16v16m-5-28v28m-23-2h12.5c2.485281 0 4.5-2.014719 4.5-4.5s-2.014719-4.5-4.5-4.5h-8c-2.485281 0-4.5-2.014719-4.5-4.5s2.014719-4.5 4.5-4.5h12.5m-21 5h-11m11 13h-2c-4.970563 0-9-4.029437-9-9v-20m-24 40v-20c0-4.970563 4.0294373-9 9-9 4.970563 0 9 4.029437 9 9s-4.029437 9-9 9h-9" stroke="#ffffff" stroke-width="4" fill="none" transform="translate(508,4)"/><line x1="86" y1="149" x2="86" y2="237" stroke="#757575" stroke-width="11" stroke-dasharray="1,68"/><g font-size="10" fill="#231f20" font-weight="bold"><text x="8" y="118" text-anchor="middle" transform="rotate(90 8 118)">7980XE</text><text x="8" y="187" text-anchor="middle" transform="rotate(90 8 187)">8086K</text><text x="8" y="256" text-anchor="middle" transform="rotate(90 8 256)">2700X</text></g><g font-size="10" fill="#065695" text-anchor="middle"><text x="171" y="303">300</text><text x="254" y="303">600</text><text x="337" y="303">900</text><text x="420" y="303">1200</text><text x="503" y="303">1500</text></g><g stroke="#BABABA" stroke-width="1"><line x1="171" y1="80" x2="171" y2="283" stroke-dasharray="5,5"/><line x1="171" y1="284" x2="171" y2="293"/><line x1="254" y1="80" x2="254" y2="283" stroke-dasharray="5,5"/><line x1="254" y1="284" x2="254" y2="293"/><line x1="337" y1="80" x2="337" y2="283" stroke-dasharray="5,5"/><line x1="337" y1="284" x2="337" y2="293"/><line x1="420" y1="80" x2="420" y2="283" stroke-dasharray="5,5"/><line x1="420" y1="284" x2="420" y2="293"/><line x1="503" y1="80" x2="503" y2="283" stroke-dasharray="5,5"/><line x1="503" y1="284" x2="503" y2="293"/></g><g stroke="#949494" stroke-width="1"><rect x="86" y="89" height="26" width="335" fill="#f44336" xlink:title="7980XE: 1207"/><rect x="86" y="158" height="26" width="347" fill="#f44336" xlink:title="8086K: 1253"/><rect x="86" y="227" height="26" width="270" fill="#f44336" xlink:title="2700X: 974"/><rect x="86" y="119" height="26" width="385" fill="#2196f3" xlink:title="7980XE: 1390"/><rect x="86" y="188" height="26" width="421" fill="#2196f3" xlink:title="8086K: 1519"/><rect x="86" y="257" height="26" width="278" fill="#2196f3" xlink:title="2700X: 1004"/></g><g font-size="8" fill="#065695" text-anchor="end"/><g font-size="10" fill="#FFFFFF" font-weight="bold" text-anchor="end"><text x="416" y="108">1207</text><text x="428" y="177">1253</text><text x="351" y="246">974</text><text x="466" y="138">1390</text><text x="502" y="207">1519</text><text x="359" y="276">1004</text></g><rect x="0" y="310" width="600" height="17" fill="#231f20"/><a xlink:href="https://www.phoronix-test-suite.com/" xlink:show="new"><text x="585" y="322" font-size="9" fill="#FEFEFE" text-anchor="end" xlink:show="new">Phoronix Test Suite 8.6.0m1</text></a><a xlink:href="/prospect/1903034-PTS-SPECCY8931/c784cc741b7806b94c28ea8a651f596a5c2f592b" xlink:show="new"><g transform="translate(4,311)" width="10" height="16"><path d="M5 0v6.5L0 11l3-3-3-3.5L5 0" fill="#038bb8"/><path d="M5 0v6.5l5 4.5-3-3 3-3.5L5 0" fill="#25b3e8"/><path d="M5 16V9l5-4.5V11l-5 5" fill="#e4f4fd"/><path d="M5 16V9L0 4.5V11l5 5" fill="#65cbf4"/></g></a></svg>
