<svg xmlns="http://www.w3.org/2000/svg" xmlns:xlink="http://www.w3.org/1999/xlink" version="1.1" font-family="sans-serif, droid-sans, helvetica, verdana, tahoma" viewbox="0 0 600 327" width="600" height="327" preserveAspectRatio="xMinYMin meet"><rect x="0" y="0" width="600" height="327" fill="#FEFEFE" stroke="#757575" stroke-width="2"/><g stroke="#757575" stroke-width="1"><rect x="79" y="52" width="10" height="10" fill="#f44336"/><rect x="182" y="52" width="10" height="10" fill="#2196f3"/></g><g font-size="9" text-anchor="start" font-weight="bold"><text x="92" y="61" fill="#f44336">Stock</text><text x="195" y="61" fill="#2196f3">Not Mitigated</text></g><g stroke="#757575" stroke-width="1"><line x1="79" y1="80" x2="79" y2="289"/><line x1="79" y1="288" x2="586" y2="288"/></g><a xlink:href="https://www.openbenchmarking.org/" xlink:show="new"><text x="585" y="75" font-size="8" fill="#065695" text-anchor="end" xlink:show="new">OpenBenchmarking.org</text></a><polygon points="79,72 88,76.5 88,67.5" fill="#065695" stroke="#949494" stroke-width="1"/><text x="91" y="75" font-size="8" fill="#065695" text-anchor="start">Clocks, Less Is Better</text><rect x="0" y="0" width="600" height="48" fill="#231f20"/><a xlink:href="https://openbenchmarking.org/test/pts/ctx-clock-1.0.0" xlink:show="new"><text x="6" y="19" font-size="17" fill="#FEFEFE" text-anchor="start" xlink:show="new" font-weight="bold">ctx_clock</text></a><text x="6" y="36" font-size="11" font-weight="bold" fill="#FEFEFE" text-anchor="start">Context Switch Time</text><path d="m74 22v9m-5-16v16m-5-28v28m-23-2h12.5c2.485281 0 4.5-2.014719 4.5-4.5s-2.014719-4.5-4.5-4.5h-8c-2.485281 0-4.5-2.014719-4.5-4.5s2.014719-4.5 4.5-4.5h12.5m-21 5h-11m11 13h-2c-4.970563 0-9-4.029437-9-9v-20m-24 40v-20c0-4.970563 4.0294373-9 9-9 4.970563 0 9 4.029437 9 9s-4.029437 9-9 9h-9" stroke="#ffffff" stroke-width="4" fill="none" transform="translate(508,4)"/><line x1="79" y1="149" x2="79" y2="237" stroke="#757575" stroke-width="11" stroke-dasharray="1,68"/><g font-size="10" fill="#231f20" font-weight="bold"><text x="8" y="118" text-anchor="middle" transform="rotate(90 8 118)">7980XE</text><text x="8" y="187" text-anchor="middle" transform="rotate(90 8 187)">8086K</text><text x="8" y="256" text-anchor="middle" transform="rotate(90 8 256)">2700X</text></g><g font-size="10" fill="#065695" text-anchor="middle"><text x="165" y="303">110</text><text x="249" y="303">220</text><text x="333" y="303">330</text><text x="417" y="303">440</text><text x="501" y="303">550</text></g><g stroke="#BABABA" stroke-width="1"><line x1="165" y1="80" x2="165" y2="283" stroke-dasharray="5,5"/><line x1="165" y1="284" x2="165" y2="293"/><line x1="249" y1="80" x2="249" y2="283" stroke-dasharray="5,5"/><line x1="249" y1="284" x2="249" y2="293"/><line x1="333" y1="80" x2="333" y2="283" stroke-dasharray="5,5"/><line x1="333" y1="284" x2="333" y2="293"/><line x1="417" y1="80" x2="417" y2="283" stroke-dasharray="5,5"/><line x1="417" y1="284" x2="417" y2="293"/><line x1="501" y1="80" x2="501" y2="283" stroke-dasharray="5,5"/><line x1="501" y1="284" x2="501" y2="293"/></g><g stroke="#949494" stroke-width="1"><rect x="79" y="89" height="26" width="308" fill="#f44336" xlink:title="7980XE: 402"/><rect x="79" y="158" height="26" width="401" fill="#f44336" xlink:title="8086K: 523"/><rect x="79" y="227" height="26" width="142" fill="#f44336" xlink:title="2700X: 185"/><rect x="79" y="119" height="26" width="90" fill="#2196f3" xlink:title="7980XE: 118"/><rect x="79" y="188" height="26" width="112" fill="#2196f3" xlink:title="8086K: 146"/><rect x="79" y="257" height="26" width="142" fill="#2196f3" xlink:title="2700X: 185"/></g><g font-size="8" fill="#065695" text-anchor="end"><text y="108" x="74">SE +/- 0.67</text><text y="138" x="74">SE +/- 0.67</text><text y="207" x="74">SE +/- 0.67</text></g><g font-size="10" fill="#FFFFFF" font-weight="bold" text-anchor="end"><text x="382" y="108">402</text><text x="475" y="177">523</text><text x="216" y="246">185</text><text x="164" y="138">118</text><text x="186" y="207">146</text><text x="216" y="276">185</text></g><rect x="0" y="310" width="600" height="17" fill="#231f20"/><a xlink:href="https://www.phoronix-test-suite.com/" xlink:show="new"><text x="585" y="322" font-size="9" fill="#FEFEFE" text-anchor="end" xlink:show="new">Phoronix Test Suite 8.6.0m1</text></a><a xlink:href="/prospect/1903034-PTS-SPECCY8931/d14fab923a8a05c721a245a14d1b704edb4f77f8" xlink:show="new"><g transform="translate(4,311)" width="10" height="16"><path d="M5 0v6.5L0 11l3-3-3-3.5L5 0" fill="#038bb8"/><path d="M5 0v6.5l5 4.5-3-3 3-3.5L5 0" fill="#25b3e8"/><path d="M5 16V9l5-4.5V11l-5 5" fill="#e4f4fd"/><path d="M5 16V9L0 4.5V11l5 5" fill="#65cbf4"/></g></a></svg>
