<svg version="1.1" viewBox="0.0 0.0 600.0 371.0" fill="none" stroke="none" stroke-linecap="square" stroke-miterlimit="10" width="600" height="371" xmlns:xlink="http://www.w3.org/1999/xlink" xmlns="http://www.w3.org/2000/svg"><path fill="#ffffff" d="M0 0L600.0 0L600.0 371.0L0 371.0L0 0Z" fill-rule="nonzero"/><path stroke="#cccccc" stroke-width="1.0" stroke-linecap="butt" d="M81.5 344.5L581.5 344.5" fill-rule="nonzero"/><path stroke="#cccccc" stroke-width="1.0" stroke-linecap="butt" d="M81.5 286.5L581.5 286.5" fill-rule="nonzero"/><path stroke="#333333" stroke-width="1.0" stroke-linecap="butt" d="M81.5 228.5L581.5 228.5" fill-rule="nonzero"/><path stroke="#cccccc" stroke-width="1.0" stroke-linecap="butt" d="M81.5 170.5L581.5 170.5" fill-rule="nonzero"/><path stroke="#cccccc" stroke-width="1.0" stroke-linecap="butt" d="M81.5 111.5L581.5 111.5" fill-rule="nonzero"/><path stroke="#cccccc" stroke-width="1.0" stroke-linecap="butt" d="M81.5 53.5L581.5 53.5" fill-rule="nonzero"/><clipPath id="id_0"><path d="M81.55 53.416668L581.45 53.416668L581.45 344.95L81.55 344.95L81.55 53.416668Z" clip-rule="nonzero"/></clipPath><path fill="#3d85c6" fill-opacity="0.3019608" clip-path="url(#id_0)" d="M81.55 104.72653L106.545 116.38786L131.54 128.0492L156.535 139.71054L181.53 151.37187L206.525 163.0332L231.52 174.69453L256.515 186.35587L281.51 198.0172L306.505 209.67853L331.5 221.33987L356.495 233.0012L381.49 244.66254L406.485 256.32385L431.48 267.9852L456.475 279.64655L481.47 291.30786L506.465 302.9692L531.46 314.63052L556.455 326.29187L581.45 337.9532L581.45 228.33667L556.455 228.33667L531.46 228.33667L506.465 228.33667L481.47 228.33667L456.475 228.33667L431.48 228.33667L406.485 228.33667L381.49 228.33667L356.495 228.33667L331.5 228.33667L306.505 228.33667L281.51 228.33667L256.515 228.33667L231.52 228.33667L206.525 228.33667L181.53 228.33667L156.535 228.33667L131.54 228.33667L106.545 228.33667L81.55 228.33667Z" fill-rule="nonzero"/><path fill="#dc3912" fill-opacity="0.3019608" clip-path="url(#id_0)" d="M81.55 94.23133L106.545 105.89267L131.54 121.0524L156.535 135.046L181.53 156.0364L206.525 156.0364L231.52 156.0364L256.515 156.0364L281.51 156.0364L306.505 156.0364L331.5 156.0364L356.495 156.0364L381.49 156.0364L406.485 156.0364L431.48 156.0364L456.475 156.0364L481.47 156.0364L506.465 156.0364L531.46 156.0364L556.455 156.0364L581.45 156.0364L581.45 228.33667L556.455 228.33667L531.46 228.33667L506.465 228.33667L481.47 228.33667L456.475 228.33667L431.48 228.33667L406.485 228.33667L381.49 228.33667L356.495 228.33667L331.5 228.33667L306.505 228.33667L281.51 228.33667L256.515 228.33667L231.52 228.33667L206.525 228.33667L181.53 228.33667L156.535 228.33667L131.54 228.33667L106.545 228.33667L81.55 228.33667Z" fill-rule="nonzero"/><path stroke="#3d85c6" stroke-width="2.0" stroke-linecap="butt" clip-path="url(#id_0)" d="M81.55 104.72653L106.545 116.38786L131.54 128.0492L156.535 139.71054L181.53 151.37187L206.525 163.0332L231.52 174.69453L256.515 186.35587L281.51 198.0172L306.505 209.67853L331.5 221.33987L356.495 233.0012L381.49 244.66254L406.485 256.32385L431.48 267.9852L456.475 279.64655L481.47 291.30786L506.465 302.9692L531.46 314.63052L556.455 326.29187L581.45 337.9532" fill-rule="nonzero"/><path stroke="#dc3912" stroke-width="2.0" stroke-linecap="butt" clip-path="url(#id_0)" d="M81.55 94.23133L106.545 105.89267L131.54 121.0524L156.535 135.046L181.53 156.0364L206.525 156.0364L231.52 156.0364L256.515 156.0364L281.51 156.0364L306.505 156.0364L331.5 156.0364L356.495 156.0364L381.49 156.0364L406.485 156.0364L431.48 156.0364L456.475 156.0364L481.47 156.0364L506.465 156.0364L531.46 156.0364L556.455 156.0364L581.45 156.0364" fill-rule="nonzero"/><path fill="#3d85c6" clip-path="url(#id_0)" d="M83.55 104.72653C83.55 105.8311 82.65457 106.72653 81.55 106.72653C80.44543 106.72653 79.55 105.8311 79.55 104.72653C79.55 103.62196 80.44543 102.72653 81.55 102.72653C82.65457 102.72653 83.55 103.62196 83.55 104.72653Z" fill-rule="nonzero"/><path fill="#3d85c6" clip-path="url(#id_0)" d="M108.545 116.38786C108.545 117.49244 107.64957 118.38786 106.545 118.38786C105.44043 118.38786 104.545 117.49244 104.545 116.38786C104.545 115.283295 105.44043 114.38786 106.545 114.38786C107.64957 114.38786 108.545 115.283295 108.545 116.38786Z" fill-rule="nonzero"/><path fill="#3d85c6" clip-path="url(#id_0)" d="M133.54 128.0492C133.54 129.15376 132.64458 130.0492 131.54 130.0492C130.43542 130.0492 129.54 129.15376 129.54 128.0492C129.54 126.94463 130.43542 126.0492 131.54 126.0492C132.64458 126.0492 133.54 126.94463 133.54 128.0492Z" fill-rule="nonzero"/><path fill="#3d85c6" clip-path="url(#id_0)" d="M158.535 139.71054C158.535 140.81511 157.63957 141.71054 156.535 141.71054C155.43044 141.71054 154.535 140.81511 154.535 139.71054C154.535 138.60596 155.43044 137.71054 156.535 137.71054C157.63957 137.71054 158.535 138.60596 158.535 139.71054Z" fill-rule="nonzero"/><path fill="#3d85c6" clip-path="url(#id_0)" d="M183.53 151.37187C183.53 152.47644 182.63457 153.37187 181.53 153.37187C180.42543 153.37187 179.53 152.47644 179.53 151.37187C179.53 150.2673 180.42543 149.37187 181.53 149.37187C182.63457 149.37187 183.53 150.2673 183.53 151.37187Z" fill-rule="nonzero"/><path fill="#3d85c6" clip-path="url(#id_0)" d="M208.525 163.0332C208.525 164.13777 207.62956 165.0332 206.525 165.0332C205.42043 165.0332 204.525 164.13777 204.525 163.0332C204.525 161.92863 205.42043 161.0332 206.525 161.0332C207.62956 161.0332 208.525 161.92863 208.525 163.0332Z" fill-rule="nonzero"/><path fill="#3d85c6" clip-path="url(#id_0)" d="M233.52 174.69453C233.52 175.7991 232.62457 176.69453 231.52 176.69453C230.41544 176.69453 229.52 175.7991 229.52 174.69453C229.52 173.58997 230.41544 172.69453 231.52 172.69453C232.62457 172.69453 233.52 173.58997 233.52 174.69453Z" fill-rule="nonzero"/><path fill="#3d85c6" clip-path="url(#id_0)" d="M258.515 186.35587C258.515 187.46043 257.61957 188.35587 256.515 188.35587C255.41043 188.35587 254.515 187.46043 254.515 186.35587C254.515 185.2513 255.41043 184.35587 256.515 184.35587C257.61957 184.35587 258.515 185.2513 258.515 186.35587Z" fill-rule="nonzero"/><path fill="#3d85c6" clip-path="url(#id_0)" d="M283.51 198.0172C283.51 199.12177 282.61456 200.0172 281.51 200.0172C280.40543 200.0172 279.51 199.12177 279.51 198.0172C279.51 196.91263 280.40543 196.0172 281.51 196.0172C282.61456 196.0172 283.51 196.91263 283.51 198.0172Z" fill-rule="nonzero"/><path fill="#3d85c6" clip-path="url(#id_0)" d="M308.505 209.67853C308.505 210.7831 307.60956 211.67853 306.505 211.67853C305.40042 211.67853 304.505 210.7831 304.505 209.67853C304.505 208.57396 305.40042 207.67853 306.505 207.67853C307.60956 207.67853 308.505 208.57396 308.505 209.67853Z" fill-rule="nonzero"/><path fill="#3d85c6" clip-path="url(#id_0)" d="M333.5 221.33987C333.5 222.44444 332.60458 223.33987 331.5 223.33987C330.39542 223.33987 329.5 222.44444 329.5 221.33987C329.5 220.23529 330.39542 219.33987 331.5 219.33987C332.60458 219.33987 333.5 220.23529 333.5 221.33987Z" fill-rule="nonzero"/><path fill="#3d85c6" clip-path="url(#id_0)" d="M358.495 233.0012C358.495 234.10577 357.59958 235.0012 356.495 235.0012C355.39044 235.0012 354.495 234.10577 354.495 233.0012C354.495 231.89664 355.39044 231.0012 356.495 231.0012C357.59958 231.0012 358.495 231.89664 358.495 233.0012Z" fill-rule="nonzero"/><path fill="#3d85c6" clip-path="url(#id_0)" d="M383.49 244.66254C383.49 245.7671 382.59457 246.66254 381.49 246.66254C380.38544 246.66254 379.49 245.7671 379.49 244.66254C379.49 243.55797 380.38544 242.66254 381.49 242.66254C382.59457 242.66254 383.49 243.55797 383.49 244.66254Z" fill-rule="nonzero"/><path fill="#3d85c6" clip-path="url(#id_0)" d="M408.485 256.32385C408.485 257.42844 407.58957 258.32385 406.485 258.32385C405.38043 258.32385 404.485 257.42844 404.485 256.32385C404.485 255.2193 405.38043 254.32387 406.485 254.32387C407.58957 254.32387 408.485 255.2193 408.485 256.32385Z" fill-rule="nonzero"/><path fill="#3d85c6" clip-path="url(#id_0)" d="M433.48 267.9852C433.48 269.08978 432.58456 269.9852 431.48 269.9852C430.37543 269.9852 429.48 269.08978 429.48 267.9852C429.48 266.88065 430.37543 265.9852 431.48 265.9852C432.58456 265.9852 433.48 266.88065 433.48 267.9852Z" fill-rule="nonzero"/><path fill="#3d85c6" clip-path="url(#id_0)" d="M458.475 279.64655C458.475 280.7511 457.57956 281.64655 456.475 281.64655C455.37042 281.64655 454.475 280.7511 454.475 279.64655C454.475 278.54196 455.37042 277.64655 456.475 277.64655C457.57956 277.64655 458.475 278.54196 458.475 279.64655Z" fill-rule="nonzero"/><path fill="#3d85c6" clip-path="url(#id_0)" d="M483.47 291.30786C483.47 292.41245 482.57455 293.30786 481.47 293.30786C480.36542 293.30786 479.47 292.41245 479.47 291.30786C479.47 290.2033 480.36542 289.30786 481.47 289.30786C482.57455 289.30786 483.47 290.2033 483.47 291.30786Z" fill-rule="nonzero"/><path fill="#3d85c6" clip-path="url(#id_0)" d="M508.465 302.9692C508.465 304.07376 507.56958 304.9692 506.465 304.9692C505.36044 304.9692 504.465 304.07376 504.465 302.9692C504.465 301.86462 505.36044 300.9692 506.465 300.9692C507.56958 300.9692 508.465 301.86462 508.465 302.9692Z" fill-rule="nonzero"/><path fill="#3d85c6" clip-path="url(#id_0)" d="M533.46 314.63052C533.46 315.7351 532.5646 316.63052 531.46 316.63052C530.3554 316.63052 529.46 315.7351 529.46 314.63052C529.46 313.52597 530.3554 312.63052 531.46 312.63052C532.5646 312.63052 533.46 313.52597 533.46 314.63052Z" fill-rule="nonzero"/><path fill="#3d85c6" clip-path="url(#id_0)" d="M558.455 326.29187C558.455 327.39642 557.5596 328.29187 556.455 328.29187C555.3504 328.29187 554.455 327.39642 554.455 326.29187C554.455 325.1873 555.3504 324.29187 556.455 324.29187C557.5596 324.29187 558.455 325.1873 558.455 326.29187Z" fill-rule="nonzero"/><path fill="#3d85c6" clip-path="url(#id_0)" d="M583.45 337.9532C583.45 339.05777 582.55457 339.9532 581.45 339.9532C580.34546 339.9532 579.45 339.05777 579.45 337.9532C579.45 336.84863 580.34546 335.9532 581.45 335.9532C582.55457 335.9532 583.45 336.84863 583.45 337.9532Z" fill-rule="nonzero"/><path fill="#dc3912" clip-path="url(#id_0)" d="M83.55 94.23133C83.55 95.3359 82.65457 96.23133 81.55 96.23133C80.44543 96.23133 79.55 95.3359 79.55 94.23133C79.55 93.12676 80.44543 92.23133 81.55 92.23133C82.65457 92.23133 83.55 93.12676 83.55 94.23133Z" fill-rule="nonzero"/><path fill="#dc3912" clip-path="url(#id_0)" d="M108.545 105.89267C108.545 106.99724 107.64957 107.89267 106.545 107.89267C105.44043 107.89267 104.545 106.99724 104.545 105.89267C104.545 104.78809 105.44043 103.89267 106.545 103.89267C107.64957 103.89267 108.545 104.78809 108.545 105.89267Z" fill-rule="nonzero"/><path fill="#dc3912" clip-path="url(#id_0)" d="M133.54 121.0524C133.54 122.15697 132.64458 123.0524 131.54 123.0524C130.43542 123.0524 129.54 122.15697 129.54 121.0524C129.54 119.94783 130.43542 119.0524 131.54 119.0524C132.64458 119.0524 133.54 119.94783 133.54 121.0524Z" fill-rule="nonzero"/><path fill="#dc3912" clip-path="url(#id_0)" d="M158.535 135.046C158.535 136.15057 157.63957 137.046 156.535 137.046C155.43044 137.046 154.535 136.15057 154.535 135.046C154.535 133.94144 155.43044 133.046 156.535 133.046C157.63957 133.046 158.535 133.94144 158.535 135.046Z" fill-rule="nonzero"/><path fill="#dc3912" clip-path="url(#id_0)" d="M183.53 156.0364C183.53 157.14098 182.63457 158.0364 181.53 158.0364C180.42543 158.0364 179.53 157.14098 179.53 156.0364C179.53 154.93182 180.42543 154.0364 181.53 154.0364C182.63457 154.0364 183.53 154.93182 183.53 156.0364Z" fill-rule="nonzero"/><path fill="#dc3912" clip-path="url(#id_0)" d="M208.525 156.0364C208.525 157.14098 207.62956 158.0364 206.525 158.0364C205.42043 158.0364 204.525 157.14098 204.525 156.0364C204.525 154.93182 205.42043 154.0364 206.525 154.0364C207.62956 154.0364 208.525 154.93182 208.525 156.0364Z" fill-rule="nonzero"/><path fill="#dc3912" clip-path="url(#id_0)" d="M233.52 156.0364C233.52 157.14098 232.62457 158.0364 231.52 158.0364C230.41544 158.0364 229.52 157.14098 229.52 156.0364C229.52 154.93182 230.41544 154.0364 231.52 154.0364C232.62457 154.0364 233.52 154.93182 233.52 156.0364Z" fill-rule="nonzero"/><path fill="#dc3912" clip-path="url(#id_0)" d="M258.515 156.0364C258.515 157.14098 257.61957 158.0364 256.515 158.0364C255.41043 158.0364 254.515 157.14098 254.515 156.0364C254.515 154.93182 255.41043 154.0364 256.515 154.0364C257.61957 154.0364 258.515 154.93182 258.515 156.0364Z" fill-rule="nonzero"/><path fill="#dc3912" clip-path="url(#id_0)" d="M283.51 156.0364C283.51 157.14098 282.61456 158.0364 281.51 158.0364C280.40543 158.0364 279.51 157.14098 279.51 156.0364C279.51 154.93182 280.40543 154.0364 281.51 154.0364C282.61456 154.0364 283.51 154.93182 283.51 156.0364Z" fill-rule="nonzero"/><path fill="#dc3912" clip-path="url(#id_0)" d="M308.505 156.0364C308.505 157.14098 307.60956 158.0364 306.505 158.0364C305.40042 158.0364 304.505 157.14098 304.505 156.0364C304.505 154.93182 305.40042 154.0364 306.505 154.0364C307.60956 154.0364 308.505 154.93182 308.505 156.0364Z" fill-rule="nonzero"/><path fill="#dc3912" clip-path="url(#id_0)" d="M333.5 156.0364C333.5 157.14098 332.60458 158.0364 331.5 158.0364C330.39542 158.0364 329.5 157.14098 329.5 156.0364C329.5 154.93182 330.39542 154.0364 331.5 154.0364C332.60458 154.0364 333.5 154.93182 333.5 156.0364Z" fill-rule="nonzero"/><path fill="#dc3912" clip-path="url(#id_0)" d="M358.495 156.0364C358.495 157.14098 357.59958 158.0364 356.495 158.0364C355.39044 158.0364 354.495 157.14098 354.495 156.0364C354.495 154.93182 355.39044 154.0364 356.495 154.0364C357.59958 154.0364 358.495 154.93182 358.495 156.0364Z" fill-rule="nonzero"/><path fill="#dc3912" clip-path="url(#id_0)" d="M383.49 156.0364C383.49 157.14098 382.59457 158.0364 381.49 158.0364C380.38544 158.0364 379.49 157.14098 379.49 156.0364C379.49 154.93182 380.38544 154.0364 381.49 154.0364C382.59457 154.0364 383.49 154.93182 383.49 156.0364Z" fill-rule="nonzero"/><path fill="#dc3912" clip-path="url(#id_0)" d="M408.485 156.0364C408.485 157.14098 407.58957 158.0364 406.485 158.0364C405.38043 158.0364 404.485 157.14098 404.485 156.0364C404.485 154.93182 405.38043 154.0364 406.485 154.0364C407.58957 154.0364 408.485 154.93182 408.485 156.0364Z" fill-rule="nonzero"/><path fill="#dc3912" clip-path="url(#id_0)" d="M433.48 156.0364C433.48 157.14098 432.58456 158.0364 431.48 158.0364C430.37543 158.0364 429.48 157.14098 429.48 156.0364C429.48 154.93182 430.37543 154.0364 431.48 154.0364C432.58456 154.0364 433.48 154.93182 433.48 156.0364Z" fill-rule="nonzero"/><path fill="#dc3912" clip-path="url(#id_0)" d="M458.475 156.0364C458.475 157.14098 457.57956 158.0364 456.475 158.0364C455.37042 158.0364 454.475 157.14098 454.475 156.0364C454.475 154.93182 455.37042 154.0364 456.475 154.0364C457.57956 154.0364 458.475 154.93182 458.475 156.0364Z" fill-rule="nonzero"/><path fill="#dc3912" clip-path="url(#id_0)" d="M483.47 156.0364C483.47 157.14098 482.57455 158.0364 481.47 158.0364C480.36542 158.0364 479.47 157.14098 479.47 156.0364C479.47 154.93182 480.36542 154.0364 481.47 154.0364C482.57455 154.0364 483.47 154.93182 483.47 156.0364Z" fill-rule="nonzero"/><path fill="#dc3912" clip-path="url(#id_0)" d="M508.465 156.0364C508.465 157.14098 507.56958 158.0364 506.465 158.0364C505.36044 158.0364 504.465 157.14098 504.465 156.0364C504.465 154.93182 505.36044 154.0364 506.465 154.0364C507.56958 154.0364 508.465 154.93182 508.465 156.0364Z" fill-rule="nonzero"/><path fill="#dc3912" clip-path="url(#id_0)" d="M533.46 156.0364C533.46 157.14098 532.5646 158.0364 531.46 158.0364C530.3554 158.0364 529.46 157.14098 529.46 156.0364C529.46 154.93182 530.3554 154.0364 531.46 154.0364C532.5646 154.0364 533.46 154.93182 533.46 156.0364Z" fill-rule="nonzero"/><path fill="#dc3912" clip-path="url(#id_0)" d="M558.455 156.0364C558.455 157.14098 557.5596 158.0364 556.455 158.0364C555.3504 158.0364 554.455 157.14098 554.455 156.0364C554.455 154.93182 555.3504 154.0364 556.455 154.0364C557.5596 154.0364 558.455 154.93182 558.455 156.0364Z" fill-rule="nonzero"/><path fill="#dc3912" clip-path="url(#id_0)" d="M583.45 156.0364C583.45 157.14098 582.55457 158.0364 581.45 158.0364C580.34546 158.0364 579.45 157.14098 579.45 156.0364C579.45 154.93182 580.34546 154.0364 581.45 154.0364C582.55457 154.0364 583.45 154.93182 583.45 156.0364Z" fill-rule="nonzero"/><path fill="#424242" d="M30.550013 218.13646L30.550013 219.26146L26.612513 219.26146L26.612513 223.57396L30.550013 223.57396L30.550013 224.69896L22.018763 224.69896L22.018763 223.57396L25.690638 223.57396L25.690638 219.26146L22.018763 219.26146L22.018763 218.13646L30.550013 218.13646ZM27.315638 216.15208Q26.393763 216.15208 25.643763 215.79271Q24.893763 215.41771 24.503138 214.76146Q24.096888 214.10521 24.096888 213.27708Q24.096888 211.98021 24.987513 211.18333Q25.878138 210.37083 27.378138 210.37083L27.456263 210.37083Q28.378138 210.37083 29.112513 210.73021Q29.846888 211.08958 30.268763 211.74583Q30.675013 212.40208 30.675013 213.26146Q30.675013 214.54271 29.784388 215.35521Q28.878138 216.15208 27.393763 216.15208L27.315638 216.15208ZM27.456263 215.05833Q28.503138 215.05833 29.143763 214.57396Q29.784388 214.07396 29.784388 213.26146Q29.784388 212.43333 29.143763 211.94896Q28.487513 211.46458 27.315638 211.46458Q26.284388 211.46458 25.643763 211.96458Q24.987513 212.44896 24.987513 213.27708Q24.987513 214.07396 25.628138 214.57396Q26.253138 215.05833 27.456263 215.05833ZM29.925013 204.94896Q30.675013 205.57396 30.675013 206.80833Q30.675013 207.82396 30.081263 208.35521Q29.487513 208.88646 28.331263 208.88646L24.206263 208.88646L24.206263 207.80833L28.300013 207.80833Q29.753138 207.80833 29.753138 206.63646Q29.753138 205.38646 28.815638 204.98021L24.206263 204.98021L24.206263 203.88646L30.550013 203.88646L30.550013 204.91771L29.925013 204.94896ZM25.175013 198.79271Q25.143763 199.04271 25.143763 199.32396Q25.143763 200.40208 26.050013 200.77708L30.550013 200.77708L30.550013 201.85521L24.206263 201.85521L24.206263 200.80833L24.940638 200.79271Q24.096888 200.26146 24.096888 199.27708Q24.096888 198.96458 24.175013 198.79271L25.175013 198.79271ZM28.862513 194.16771Q28.425013 194.16771 28.190638 194.51146Q27.940638 194.83958 27.768763 195.66771Q27.596888 196.48021 27.346888 196.96458Q27.096888 197.44896 26.768763 197.68333Q26.425013 197.90208 25.956263 197.90208Q25.175013 197.90208 24.643763 197.24583Q24.096888 196.58958 24.096888 195.55833Q24.096888 194.48021 24.659388 193.82396Q25.206263 193.15208 26.065638 193.15208L26.065638 194.23021Q25.628138 194.23021 25.315638 194.62083Q24.987513 194.99583 24.987513 195.55833Q24.987513 196.15208 25.253138 196.49583Q25.503138 196.82396 25.909388 196.82396Q26.300013 196.82396 26.503138 196.51146Q26.706263 196.19896 26.893763 195.38646Q27.065638 194.57396 27.315638 194.07396Q27.565638 193.57396 27.925013 193.33958Q28.284388 193.08958 28.784388 193.08958Q29.643763 193.08958 30.159388 193.77708Q30.675013 194.44896 30.675013 195.52708Q30.675013 196.29271 30.409388 196.88646Q30.128138 197.46458 29.643763 197.79271Q29.159388 198.12083 28.596888 198.12083L28.596888 197.04271Q29.143763 197.01146 29.471888 196.60521Q29.784388 196.19896 29.784388 195.52708Q29.784388 194.91771 29.534388 194.54271Q29.284388 194.16771 28.862513 194.16771ZM30.550013 187.68333L30.550013 188.76146L21.550013 188.76146L21.550013 187.68333L30.550013 187.68333ZM30.675013 183.23021Q30.675013 184.52708 29.831263 185.33958Q28.971888 186.13646 27.550013 186.13646L27.362513 186.13646Q26.409388 186.13646 25.675013 185.77708Q24.925013 185.41771 24.518763 184.77708Q24.096888 184.12083 24.096888 183.37083Q24.096888 182.13646 24.909388 181.44896Q25.721888 180.76146 27.237513 180.76146L27.690638 180.76146L27.690638 185.05833Q28.628138 185.02708 29.206263 184.51146Q29.784388 183.98021 29.784388 183.16771Q29.784388 182.60521 29.550013 182.21458Q29.315638 181.80833 28.925013 181.49583L29.440638 180.83958Q30.675013 181.63646 30.675013 183.23021ZM24.987513 183.37083Q24.987513 184.02708 25.471888 184.48021Q25.940638 184.91771 26.800013 185.01146L26.800013 181.83958L26.721888 181.83958Q25.893763 181.88646 25.440638 182.29271Q24.987513 182.68333 24.987513 183.37083ZM30.550013 179.32396L25.050013 179.32396L25.050013 180.32396L24.206263 180.32396L24.206263 179.32396L23.565638 179.32396Q22.534388 179.32396 21.987513 178.79271Q21.425013 178.24583 21.425013 177.24583Q21.425013 176.87083 21.518763 176.49583L22.409388 176.55833Q22.346888 176.83958 22.346888 177.13646Q22.346888 177.66771 22.659388 177.96458Q22.971888 178.24583 23.534388 178.24583L24.206263 178.24583L24.206263 176.88646L25.050013 176.88646L25.050013 178.24583L30.550013 178.24583L30.550013 179.32396ZM22.675013 174.38646L24.206263 174.38646L24.206263 173.21458L25.050013 173.21458L25.050013 174.38646L28.971888 174.38646Q29.362513 174.38646 29.550013 174.23021Q29.737513 174.07396 29.737513 173.69896Q29.737513 173.51146 29.675013 173.18333L30.550013 173.18333Q30.675013 173.60521 30.675013 174.01146Q30.675013 174.73021 30.237513 175.10521Q29.784388 175.48021 28.971888 175.48021L25.050013 175.48021L25.050013 176.63646L24.206263 176.63646L24.206263 175.48021L22.675013 175.48021L22.675013 174.38646Z" fill-rule="nonzero"/><path fill="#757575" d="M54.628124 346.2625L51.76875 346.2625L51.76875 345.3875L54.628124 345.3875L54.628124 346.2625ZM58.815624 349.45L57.7375 349.45L57.7375 342.23126L55.55 343.02814L55.55 342.04376L58.659374 340.8719L58.815624 340.8719L58.815624 349.45ZM67.6125 345.8094Q67.6125 347.71564 66.95625 348.65314Q66.31563 349.575 64.925 349.575Q63.565624 349.575 62.909374 348.66876Q62.253124 347.7625 62.221874 345.95L62.221874 344.5125Q62.221874 342.6219 62.8625 341.71564Q63.51875 340.79376 64.90938 340.79376Q66.28438 340.79376 66.94063 341.6844Q67.59688 342.5594 67.6125 344.40314L67.6125 345.8094ZM66.51875 344.325Q66.51875 342.95 66.12813 342.325Q65.75313 341.6844 64.90938 341.6844Q64.08125 341.6844 63.690624 342.325Q63.315624 342.95 63.315624 344.2469L63.315624 345.98126Q63.315624 347.35626 63.70625 348.02814Q64.1125 348.6844 64.925 348.6844Q65.72188 348.6844 66.1125 348.0594Q66.50313 347.4344 66.51875 346.10626L66.51875 344.325ZM74.6125 345.8094Q74.6125 347.71564 73.95625 348.65314Q73.31563 349.575 71.925 349.575Q70.56563 349.575 69.90938 348.66876Q69.25313 347.7625 69.22188 345.95L69.22188 344.5125Q69.22188 342.6219 69.8625 341.71564Q70.51875 340.79376 71.90938 340.79376Q73.28438 340.79376 73.94063 341.6844Q74.59688 342.5594 74.6125 344.40314L74.6125 345.8094ZM73.51875 344.325Q73.51875 342.95 73.12813 342.325Q72.75313 341.6844 71.90938 341.6844Q71.08125 341.6844 70.69063 342.325Q70.31563 342.95 70.31563 344.2469L70.31563 345.98126Q70.31563 347.35626 70.70625 348.02814Q71.1125 348.6844 71.925 348.6844Q72.72188 348.6844 73.1125 348.0594Q73.50313 347.4344 73.51875 346.10626L73.51875 344.325Z" fill-rule="nonzero"/><path fill="#757575" d="M61.628124 287.95584L58.76875 287.95584L58.76875 287.08084L61.628124 287.08084L61.628124 287.95584ZM62.753124 286.8621L63.190624 282.6121L67.56563 282.6121L67.56563 283.6121L64.1125 283.6121L63.846874 285.94022Q64.4875 285.56522 65.28438 285.56522Q66.44063 285.56522 67.12813 286.34647Q67.81563 287.1121 67.81563 288.4246Q67.81563 289.7371 67.09688 290.50272Q66.39375 291.26834 65.1125 291.26834Q63.9875 291.26834 63.26875 290.64334Q62.55 290.00272 62.45625 288.89334L63.471874 288.89334Q63.58125 289.62772 64.00313 290.00272Q64.425 290.37772 65.1125 290.37772Q65.8625 290.37772 66.3 289.8621Q66.7375 289.34647 66.7375 288.44022Q66.7375 287.58084 66.26875 287.06522Q65.8 286.5496 65.01875 286.5496Q64.31563 286.5496 63.909374 286.84647L63.628124 287.08084L62.753124 286.8621ZM74.6125 287.50272Q74.6125 289.40897 73.95625 290.34647Q73.31563 291.26834 71.925 291.26834Q70.56563 291.26834 69.90938 290.3621Q69.25313 289.45584 69.22188 287.64334L69.22188 286.20584Q69.22188 284.31522 69.8625 283.40897Q70.51875 282.4871 71.90938 282.4871Q73.28438 282.4871 73.94063 283.37772Q74.59688 284.25272 74.6125 286.09647L74.6125 287.50272ZM73.51875 286.01834Q73.51875 284.64334 73.12813 284.01834Q72.75313 283.37772 71.90938 283.37772Q71.08125 283.37772 70.69063 284.01834Q70.31563 284.64334 70.31563 285.94022L70.31563 287.6746Q70.31563 289.0496 70.70625 289.72147Q71.1125 290.37772 71.925 290.37772Q72.72188 290.37772 73.1125 289.75272Q73.50313 289.12772 73.51875 287.7996L73.51875 286.01834Z" fill-rule="nonzero"/><path fill="#757575" d="M74.6125 229.19604Q74.6125 231.1023 73.95625 232.0398Q73.31563 232.96167 71.925 232.96167Q70.56563 232.96167 69.90938 232.05542Q69.25313 231.14917 69.22188 229.33667L69.22188 227.89917Q69.22188 226.00854 69.8625 225.1023Q70.51875 224.18042 71.90938 224.18042Q73.28438 224.18042 73.94063 225.07104Q74.59688 225.94604 74.6125 227.7898L74.6125 229.19604ZM73.51875 227.71167Q73.51875 226.33667 73.12813 225.71167Q72.75313 225.07104 71.90938 225.07104Q71.08125 225.07104 70.69063 225.71167Q70.31563 226.33667 70.31563 227.63354L70.31563 229.36792Q70.31563 230.74292 70.70625 231.4148Q71.1125 232.07104 71.925 232.07104Q72.72188 232.07104 73.1125 231.44604Q73.50313 230.82104 73.51875 229.49292L73.51875 227.71167Z" fill-rule="nonzero"/><path fill="#757575" d="M62.753124 170.24875L63.190624 165.99875L67.56563 165.99875L67.56563 166.99875L64.1125 166.99875L63.846874 169.32687Q64.4875 168.95187 65.28438 168.95187Q66.44063 168.95187 67.12813 169.73312Q67.81563 170.49875 67.81563 171.81125Q67.81563 173.12375 67.09688 173.88937Q66.39375 174.655 65.1125 174.655Q63.9875 174.655 63.26875 174.03Q62.55 173.38937 62.45625 172.28L63.471874 172.28Q63.58125 173.01437 64.00313 173.38937Q64.425 173.76437 65.1125 173.76437Q65.8625 173.76437 66.3 173.24875Q66.7375 172.73312 66.7375 171.82687Q66.7375 170.9675 66.26875 170.45187Q65.8 169.93625 65.01875 169.93625Q64.31563 169.93625 63.909374 170.23312L63.628124 170.4675L62.753124 170.24875ZM74.6125 170.88937Q74.6125 172.79562 73.95625 173.73312Q73.31563 174.655 71.925 174.655Q70.56563 174.655 69.90938 173.74875Q69.25313 172.8425 69.22188 171.03L69.22188 169.5925Q69.22188 167.70187 69.8625 166.79562Q70.51875 165.87375 71.90938 165.87375Q73.28438 165.87375 73.94063 166.76437Q74.59688 167.63937 74.6125 169.48312L74.6125 170.88937ZM73.51875 169.405Q73.51875 168.03 73.12813 167.405Q72.75313 166.76437 71.90938 166.76437Q71.08125 166.76437 70.69063 167.405Q70.31563 168.03 70.31563 169.32687L70.31563 171.06125Q70.31563 172.43625 70.70625 173.10812Q71.1125 173.76437 71.925 173.76437Q72.72188 173.76437 73.1125 173.13937Q73.50313 172.51437 73.51875 171.18625L73.51875 169.405Z" fill-rule="nonzero"/><path fill="#757575" d="M58.815624 116.223335L57.7375 116.223335L57.7375 109.004585L55.55 109.80146L55.55 108.817085L58.659374 107.64521L58.815624 107.64521L58.815624 116.223335ZM67.6125 112.58271Q67.6125 114.48896 66.95625 115.42646Q66.31563 116.348335 64.925 116.348335Q63.565624 116.348335 62.909374 115.442085Q62.253124 114.535835 62.221874 112.723335L62.221874 111.285835Q62.221874 109.39521 62.8625 108.48896Q63.51875 107.567085 64.90938 107.567085Q66.28438 107.567085 66.94063 108.45771Q67.59688 109.33271 67.6125 111.17646L67.6125 112.58271ZM66.51875 111.098335Q66.51875 109.723335 66.12813 109.098335Q65.75313 108.45771 64.90938 108.45771Q64.08125 108.45771 63.690624 109.098335Q63.315624 109.723335 63.315624 111.02021L63.315624 112.754585Q63.315624 114.129585 63.70625 114.80146Q64.1125 115.45771 64.925 115.45771Q65.72188 115.45771 66.1125 114.83271Q66.50313 114.20771 66.51875 112.879585L66.51875 111.098335ZM74.6125 112.58271Q74.6125 114.48896 73.95625 115.42646Q73.31563 116.348335 71.925 116.348335Q70.56563 116.348335 69.90938 115.442085Q69.25313 114.535835 69.22188 112.723335L69.22188 111.285835Q69.22188 109.39521 69.8625 108.48896Q70.51875 107.567085 71.90938 107.567085Q73.28438 107.567085 73.94063 108.45771Q74.59688 109.33271 74.6125 111.17646L74.6125 112.58271ZM73.51875 111.098335Q73.51875 109.723335 73.12813 109.098335Q72.75313 108.45771 71.90938 108.45771Q71.08125 108.45771 70.69063 109.098335Q70.31563 109.723335 70.31563 111.02021L70.31563 112.754585Q70.31563 114.129585 70.70625 114.80146Q71.1125 115.45771 71.925 115.45771Q72.72188 115.45771 73.1125 114.83271Q73.50313 114.20771 73.51875 112.879585L73.51875 111.098335Z" fill-rule="nonzero"/><path fill="#757575" d="M58.815624 57.916668L57.7375 57.916668L57.7375 50.697918L55.55 51.494793L55.55 50.510418L58.659374 49.338543L58.815624 49.338543L58.815624 57.916668ZM62.753124 53.635418L63.190624 49.385418L67.56563 49.385418L67.56563 50.385418L64.1125 50.385418L63.846874 52.713543Q64.4875 52.338543 65.28438 52.338543Q66.44063 52.338543 67.12813 53.119793Q67.81563 53.885418 67.81563 55.197918Q67.81563 56.510418 67.09688 57.276043Q66.39375 58.041668 65.1125 58.041668Q63.9875 58.041668 63.26875 57.416668Q62.55 56.776043 62.45625 55.666668L63.471874 55.666668Q63.58125 56.401043 64.00313 56.776043Q64.425 57.151043 65.1125 57.151043Q65.8625 57.151043 66.3 56.635418Q66.7375 56.119793 66.7375 55.213543Q66.7375 54.354168 66.26875 53.838543Q65.8 53.322918 65.01875 53.322918Q64.31563 53.322918 63.909374 53.619793L63.628124 53.854168L62.753124 53.635418ZM74.6125 54.276043Q74.6125 56.182293 73.95625 57.119793Q73.31563 58.041668 71.925 58.041668Q70.56563 58.041668 69.90938 57.135418Q69.25313 56.229168 69.22188 54.416668L69.22188 52.979168Q69.22188 51.088543 69.8625 50.182293Q70.51875 49.260418 71.90938 49.260418Q73.28438 49.260418 73.94063 50.151043Q74.59688 51.026043 74.6125 52.869793L74.6125 54.276043ZM73.51875 52.791668Q73.51875 51.416668 73.12813 50.791668Q72.75313 50.151043 71.90938 50.151043Q71.08125 50.151043 70.69063 50.791668Q70.31563 51.416668 70.31563 52.713543L70.31563 54.447918Q70.31563 55.822918 70.70625 56.494793Q71.1125 57.151043 71.925 57.151043Q72.72188 57.151043 73.1125 56.526043Q73.50313 55.901043 73.51875 54.572918L73.51875 52.791668Z" fill-rule="nonzero"/><path fill="#3d85c6" d="M238.5 26.05C238.5 29.363708 235.8137 32.05 232.5 32.05C229.1863 32.05 226.5 29.363708 226.5 26.05C226.5 22.736292 229.1863 20.05 232.5 20.05C235.8137 20.05 238.5 22.736292 238.5 26.05Z" fill-rule="nonzero"/><path fill="#757575" d="M252.3125 26.6125L248.60938 26.6125L248.60938 29.628124L252.90625 29.628124L252.90625 30.55L247.48438 30.55L247.48438 22.01875L252.85938 22.01875L252.85938 22.940624L248.60938 22.940624L248.60938 25.690624L252.3125 25.690624L252.3125 26.6125ZM258.01562 28.8625Q258.01562 28.425 257.67188 28.190624Q257.34375 27.940624 256.51562 27.76875Q255.70312 27.596874 255.21875 27.346874Q254.73438 27.096874 254.5 26.76875Q254.28125 26.425 254.28125 25.95625Q254.28125 25.175 254.9375 24.64375Q255.59375 24.096874 256.625 24.096874Q257.70312 24.096874 258.35938 24.659374Q259.03125 25.20625 259.03125 26.065624L257.95312 26.065624Q257.95312 25.628124 257.5625 25.315624Q257.1875 24.9875 256.625 24.9875Q256.03125 24.9875 255.6875 25.253124Q255.35938 25.503124 255.35938 25.909374Q255.35938 26.3 255.67188 26.503124Q255.98438 26.70625 256.79688 26.89375Q257.60938 27.065624 258.10938 27.315624Q258.60938 27.565624 258.84375 27.925Q259.09375 28.284374 259.09375 28.784374Q259.09375 29.64375 258.40625 30.159374Q257.73438 30.675 256.65625 30.675Q255.89062 30.675 255.29688 30.409374Q254.71875 30.128124 254.39062 29.64375Q254.0625 29.159374 254.0625 28.596874L255.14062 28.596874Q255.17188 29.14375 255.57812 29.471874Q255.98438 29.784374 256.65625 29.784374Q257.26562 29.784374 257.64062 29.534374Q258.01562 29.284374 258.01562 28.8625ZM261.79688 22.675L261.79688 24.20625L262.96875 24.20625L262.96875 25.05L261.79688 25.05L261.79688 28.971874Q261.79688 29.3625 261.95312 29.55Q262.10938 29.7375 262.48438 29.7375Q262.67188 29.7375 263.0 29.675L263.0 30.55Q262.57812 30.675 262.17188 30.675Q261.45312 30.675 261.07812 30.2375Q260.70312 29.784374 260.70312 28.971874L260.70312 25.05L259.54688 25.05L259.54688 24.20625L260.70312 24.20625L260.70312 22.675L261.79688 22.675ZM265.5 30.55L264.42188 30.55L264.42188 24.20625L265.5 24.20625L265.5 30.55ZM264.32812 22.534374Q264.32812 22.26875 264.48438 22.08125Q264.65625 21.89375 264.96875 21.89375Q265.28125 21.89375 265.4375 22.08125Q265.60938 22.26875 265.60938 22.534374Q265.60938 22.784374 265.4375 22.971874Q265.28125 23.14375 264.96875 23.14375Q264.65625 23.14375 264.48438 22.971874Q264.32812 22.784374 264.32812 22.534374ZM268.34375 24.20625L268.375 24.909374Q269.0625 24.096874 270.25 24.096874Q271.57812 24.096874 272.0625 25.1125Q272.375 24.659374 272.875 24.378124Q273.39062 24.096874 274.07812 24.096874Q276.17188 24.096874 276.20312 26.3L276.20312 30.55L275.125 30.55L275.125 26.3625Q275.125 25.690624 274.8125 25.3625Q274.5 25.01875 273.76562 25.01875Q273.15625 25.01875 272.75 25.378124Q272.35938 25.7375 272.29688 26.346874L272.29688 30.55L271.21875 30.55L271.21875 26.39375Q271.21875 25.01875 269.85938 25.01875Q268.79688 25.01875 268.40625 25.925L268.40625 30.55L267.3125 30.55L267.3125 24.20625L268.34375 24.20625ZM282.23438 30.55Q282.14062 30.3625 282.07812 29.878124Q281.32812 30.675 280.28125 30.675Q279.34375 30.675 278.73438 30.14375Q278.14062 29.6125 278.14062 28.784374Q278.14062 27.8 278.89062 27.253124Q279.64062 26.70625 281.01562 26.70625L282.0625 26.70625L282.0625 26.20625Q282.0625 25.64375 281.71875 25.315624Q281.39062 24.971874 280.71875 24.971874Q280.14062 24.971874 279.75 25.26875Q279.35938 25.55 279.35938 25.971874L278.26562 25.971874Q278.26562 25.4875 278.59375 25.05Q278.9375 24.6125 279.51562 24.3625Q280.09375 24.096874 280.78125 24.096874Q281.89062 24.096874 282.5 24.64375Q283.125 25.190624 283.15625 26.14375L283.15625 29.065624Q283.15625 29.940624 283.375 30.45625L283.375 30.55L282.23438 30.55ZM280.4375 29.721874Q280.95312 29.721874 281.40625 29.45625Q281.85938 29.190624 282.0625 28.76875L282.0625 27.471874L281.21875 27.471874Q279.21875 27.471874 279.21875 28.64375Q279.21875 29.14375 279.5625 29.440624Q279.90625 29.721874 280.4375 29.721874ZM286.79688 22.675L286.79688 24.20625L287.96875 24.20625L287.96875 25.05L286.79688 25.05L286.79688 28.971874Q286.79688 29.3625 286.95312 29.55Q287.10938 29.7375 287.48438 29.7375Q287.67188 29.7375 288.0 29.675L288.0 30.55Q287.57812 30.675 287.17188 30.675Q286.45312 30.675 286.07812 30.2375Q285.70312 29.784374 285.70312 28.971874L285.70312 25.05L284.54688 25.05L284.54688 24.20625L285.70312 24.20625L285.70312 22.675L286.79688 22.675ZM291.95312 30.675Q290.65625 30.675 289.84375 29.83125Q289.04688 28.971874 289.04688 27.55L289.04688 27.3625Q289.04688 26.409374 289.40625 25.675Q289.76562 24.925 290.40625 24.51875Q291.0625 24.096874 291.8125 24.096874Q293.04688 24.096874 293.73438 24.909374Q294.42188 25.721874 294.42188 27.2375L294.42188 27.690624L290.125 27.690624Q290.15625 28.628124 290.67188 29.20625Q291.20312 29.784374 292.01562 29.784374Q292.57812 29.784374 292.96875 29.55Q293.375 29.315624 293.6875 28.925L294.34375 29.440624Q293.54688 30.675 291.95312 30.675ZM291.8125 24.9875Q291.15625 24.9875 290.70312 25.471874Q290.26562 25.940624 290.17188 26.8L293.34375 26.8L293.34375 26.721874Q293.29688 25.89375 292.89062 25.440624Q292.5 24.9875 291.8125 24.9875Z" fill-rule="nonzero"/><path fill="#dc3912" d="M322.5 26.05C322.5 29.363708 319.81372 32.05 316.5 32.05C313.18628 32.05 310.5 29.363708 310.5 26.05C310.5 22.736292 313.18628 20.05 316.5 20.05C319.81372 20.05 322.5 22.736292 322.5 26.05Z" fill-rule="nonzero"/><path fill="#757575" d="M331.48438 30.55L331.48438 22.01875L334.28125 22.01875Q335.67188 22.01875 336.35938 22.596874Q337.0625 23.159374 337.0625 24.284374Q337.0625 24.89375 336.71875 25.3625Q336.39062 25.815624 335.79688 26.065624Q336.5 26.253124 336.89062 26.8Q337.29688 27.33125 337.29688 28.08125Q337.29688 29.2375 336.54688 29.89375Q335.8125 30.55 334.45312 30.55L331.48438 30.55ZM332.60938 26.565624L332.60938 29.628124L334.46875 29.628124Q335.26562 29.628124 335.71875 29.221874Q336.17188 28.815624 336.17188 28.096874Q336.17188 26.565624 334.48438 26.565624L332.60938 26.565624ZM332.60938 25.659374L334.3125 25.659374Q335.04688 25.659374 335.48438 25.3Q335.9375 24.925 335.9375 24.284374Q335.9375 23.58125 335.53125 23.26875Q335.125 22.940624 334.28125 22.940624L332.60938 22.940624L332.60938 25.659374ZM342.23438 29.925Q341.60938 30.675 340.375 30.675Q339.35938 30.675 338.82812 30.08125Q338.29688 29.4875 338.29688 28.33125L338.29688 24.20625L339.375 24.20625L339.375 28.3Q339.375 29.753124 340.54688 29.753124Q341.79688 29.753124 342.20312 28.815624L342.20312 24.20625L343.29688 24.20625L343.29688 30.55L342.26562 30.55L342.23438 29.925ZM348.39062 25.175Q348.14062 25.14375 347.85938 25.14375Q346.78125 25.14375 346.40625 26.05L346.40625 30.55L345.32812 30.55L345.32812 24.20625L346.375 24.20625L346.39062 24.940624Q346.92188 24.096874 347.90625 24.096874Q348.21875 24.096874 348.39062 24.175L348.39062 25.175ZM350.34375 24.20625L350.375 25.003124Q351.10938 24.096874 352.28125 24.096874Q354.29688 24.096874 354.3125 26.3625L354.3125 30.55L353.21875 30.55L353.21875 26.346874Q353.21875 25.675 352.90625 25.346874Q352.60938 25.01875 351.95312 25.01875Q351.42188 25.01875 351.01562 25.3Q350.625 25.58125 350.40625 26.034374L350.40625 30.55L349.32812 30.55L349.32812 24.20625L350.34375 24.20625ZM356.03125 27.315624Q356.03125 26.39375 356.39062 25.64375Q356.76562 24.89375 357.42188 24.503124Q358.07812 24.096874 358.90625 24.096874Q360.20312 24.096874 361.0 24.9875Q361.8125 25.878124 361.8125 27.378124L361.8125 27.45625Q361.8125 28.378124 361.45312 29.1125Q361.09375 29.846874 360.4375 30.26875Q359.78125 30.675 358.92188 30.675Q357.64062 30.675 356.82812 29.784374Q356.03125 28.878124 356.03125 27.39375L356.03125 27.315624ZM357.125 27.45625Q357.125 28.503124 357.60938 29.14375Q358.10938 29.784374 358.92188 29.784374Q359.75 29.784374 360.23438 29.14375Q360.71875 28.4875 360.71875 27.315624Q360.71875 26.284374 360.21875 25.64375Q359.73438 24.9875 358.90625 24.9875Q358.10938 24.9875 357.60938 25.628124Q357.125 26.253124 357.125 27.45625ZM367.23438 29.925Q366.60938 30.675 365.375 30.675Q364.35938 30.675 363.82812 30.08125Q363.29688 29.4875 363.29688 28.33125L363.29688 24.20625L364.375 24.20625L364.375 28.3Q364.375 29.753124 365.54688 29.753124Q366.79688 29.753124 367.20312 28.815624L367.20312 24.20625L368.29688 24.20625L368.29688 30.55L367.26562 30.55L367.23438 29.925ZM371.79688 22.675L371.79688 24.20625L372.96875 24.20625L372.96875 25.05L371.79688 25.05L371.79688 28.971874Q371.79688 29.3625 371.95312 29.55Q372.10938 29.7375 372.48438 29.7375Q372.67188 29.7375 373.0 29.675L373.0 30.55Q372.57812 30.675 372.17188 30.675Q371.45312 30.675 371.07812 30.2375Q370.70312 29.784374 370.70312 28.971874L370.70312 25.05L369.54688 25.05L369.54688 24.20625L370.70312 24.20625L370.70312 22.675L371.79688 22.675Z" fill-rule="nonzero"/></svg>